<svg width="67" height="16" viewBox="0 0 67 16" fill="none" xmlns="http://www.w3.org/2000/svg">
<path id="Vector 120" d="M1.44165 7C0.889366 7 0.44165 7.44772 0.44165 8C0.44165 8.55228 0.889366 9 1.44165 9V7ZM66.1488 8.70711C66.5393 8.31658 66.5393 7.68342 66.1488 7.29289L59.7848 0.928932C59.3943 0.538408 58.7611 0.538408 58.3706 0.928932C57.9801 1.31946 57.9801 1.95262 58.3706 2.34315L64.0274 8L58.3706 13.6569C57.9801 14.0474 57.9801 14.6805 58.3706 15.0711C58.7611 15.4616 59.3943 15.4616 59.7848 15.0711L66.1488 8.70711ZM1.44165 9H65.4417V7H1.44165V9Z" fill="url(#paint0_linear_970_410)"/>
<defs>
<linearGradient id="paint0_linear_970_410" x1="-25" y1="8" x2="65" y2="7.99999" gradientUnits="userSpaceOnUse">
<stop stop-color="#173768"/>
<stop offset="1" stop-color="#6547F7"/>
</linearGradient>
</defs>
</svg>
