<svg width="22" height="18" viewBox="0 0 22 18" fill="none" xmlns="http://www.w3.org/2000/svg">
<path id="Vector" d="M22 0.0381319C21.0424 0.713609 19.9821 1.23024 18.86 1.56813C18.2577 0.875643 17.4573 0.384824 16.567 0.162058C15.6767 -0.0607078 14.7395 -0.0046725 13.8821 0.322585C13.0247 0.649843 12.2884 1.23253 11.773 1.99185C11.2575 2.75116 10.9877 3.65047 11 4.56813V5.56813C9.24263 5.6137 7.50127 5.22394 5.93101 4.43358C4.36074 3.64321 3.01032 2.47677 2 1.03813C2 1.03813 -2 10.0381 7 14.0381C4.94053 15.4361 2.48716 16.1371 0 16.0381C9 21.0381 20 16.0381 20 4.53813C19.9991 4.25959 19.9723 3.98173 19.92 3.70813C20.9406 2.70163 21.6608 1.43084 22 0.0381319Z" fill="#748BAE"/>
</svg>
