<svg width="138" height="42" viewBox="0 0 138 42" fill="none" xmlns="http://www.w3.org/2000/svg">
<g id="Zepic logo 1" clip-path="url(#clip0_706_1005)">
<path id="Vector" d="M56.5907 26.4154H66.0244V32.273H48.0592V27.8123L57.2713 15.7H48.2016V9.84241H65.8027V14.2872L56.5907 26.4154Z" fill="#6547F7"/>
<path id="Vector_2" d="M75.0954 26.4154H84.5616V32.273H68.885V9.84241H84.4028V15.7H75.0954V18.0653H83.3545V23.9231H75.0954V26.4154Z" fill="#6547F7"/>
<path id="Vector_3" d="M97.9167 9.84241C100.273 9.84241 102.238 10.6044 103.812 12.1283C105.396 13.6416 106.188 15.536 106.188 17.8113C106.188 20.0866 105.396 21.981 103.812 23.4944C102.238 25.0077 100.273 25.7644 97.9167 25.7644H93.7329V32.273H87.5366V9.84241H97.9167ZM97.7898 19.9227C98.3711 19.9227 98.8563 19.7216 99.2473 19.3194C99.6383 18.9173 99.8342 18.4147 99.8342 17.8113C99.8342 17.2081 99.6383 16.7055 99.2473 16.3033C98.8563 15.9012 98.3711 15.7 97.7898 15.7H93.7329V19.9227H97.7898Z" fill="#6547F7"/>
<path id="Vector_4" d="M108.362 32.273V9.84241H114.541V32.273H108.362Z" fill="#6547F7"/>
<path id="Vector_5" d="M128.222 32.234C126.583 32.234 125.039 31.9438 123.588 31.3632C122.148 30.7723 120.908 29.9741 119.873 28.9686C118.835 27.9631 118.017 26.7606 117.415 25.3612C116.825 23.9514 116.529 22.4483 116.529 20.8519C116.529 18.7268 117.037 16.7987 118.053 15.0675C119.068 13.3261 120.468 11.9628 122.251 10.978C124.044 9.98294 126.034 9.48535 128.222 9.48535C130.273 9.48535 132.154 9.92591 133.865 10.807C135.575 11.6882 136.954 12.8958 138.001 14.43L132.745 17.6799C132.248 16.9542 131.605 16.384 130.817 15.9694C130.029 15.5547 129.164 15.3474 128.222 15.3474C126.666 15.3474 125.37 15.8709 124.334 16.9179C123.298 17.9649 122.779 19.2762 122.779 20.8519C122.779 22.4275 123.298 23.744 124.334 24.8013C125.381 25.8484 126.677 26.3719 128.222 26.3719C129.164 26.3719 130.029 26.1646 130.817 25.7498C131.605 25.3352 132.248 24.7652 132.745 24.0395L138.001 27.2893C136.954 28.8235 135.575 30.0312 133.865 30.9123C132.154 31.7934 130.273 32.234 128.222 32.234Z" fill="#6547F7"/>
<path id="Vector_6" d="M20.9482 41.9015C32.5175 41.9015 41.8964 32.5216 41.8964 20.9508C41.8964 9.38006 32.5175 0.00012207 20.9482 0.00012207C9.37882 0.00012207 0 9.38006 0 20.9508C0 32.5216 9.37882 41.9015 20.9482 41.9015Z" fill="#6547F7"/>
<path id="Vector_7" fill-rule="evenodd" clip-rule="evenodd" d="M12.8197 9.69202H29.9069V14.5747H10.3788L12.8197 9.69202Z" fill="white"/>
<path id="Vector_8" d="M27.467 9.69202H33.5695L28.6875 19.4573H22.5849L27.467 9.69202Z" fill="white"/>
<path id="Vector_9" fill-rule="evenodd" clip-rule="evenodd" d="M11.563 27.5312H31.0911L28.6502 32.4139H11.563V27.5312Z" fill="white"/>
<path id="Vector_10" d="M14.0047 22.6484H20.1072L15.2251 32.4136H9.12256L14.0047 22.6484Z" fill="white"/>
</g>
<defs>
<clipPath id="clip0_706_1005">
<rect width="138" height="42.0001" fill="white"/>
</clipPath>
</defs>
</svg>
